<svg width="40" height="40" viewBox="0 0 40 40" fill="none" xmlns="http://www.w3.org/2000/svg">
<rect opacity="0.08" width="40" height="40" rx="4" fill="#FF794C"/>
<path d="M29 14H25.44L24.9 12.37C24.7675 11.9709 24.5126 11.6237 24.1716 11.3777C23.8305 11.1318 23.4205 10.9996 23 11H17C16.5795 10.9996 16.1695 11.1318 15.8284 11.3777C15.4874 11.6237 15.2325 11.9709 15.1 12.37L14.56 14H11C10.2044 14 9.44129 14.3161 8.87868 14.8787C8.31607 15.4413 8 16.2044 8 17V26C8 26.7957 8.31607 27.5587 8.87868 28.1213C9.44129 28.6839 10.2044 29 11 29H29C29.7956 29 30.5587 28.6839 31.1213 28.1213C31.6839 27.5587 32 26.7957 32 26V17C32 16.2044 31.6839 15.4413 31.1213 14.8787C30.5587 14.3161 29.7956 14 29 14ZM20 25C19.3606 24.9996 18.7306 24.8459 18.1628 24.5519C17.595 24.2578 17.106 23.8319 16.7368 23.3099C16.3675 22.7878 16.1288 22.1849 16.0406 21.5516C15.9525 20.9183 16.0174 20.273 16.23 19.67C16.2675 19.5385 16.3316 19.416 16.4183 19.3103C16.5049 19.2045 16.6124 19.1176 16.734 19.055C16.8556 18.9924 16.9888 18.9554 17.1252 18.9463C17.2617 18.9373 17.3986 18.9563 17.5274 19.0022C17.6562 19.0481 17.7743 19.1199 17.8742 19.2133C17.9742 19.3066 18.0539 19.4195 18.1085 19.5449C18.1631 19.6703 18.1914 19.8055 18.1917 19.9423C18.1919 20.079 18.1641 20.2144 18.11 20.34C17.97 20.7404 17.961 21.1749 18.0842 21.5808C18.2073 21.9867 18.4564 22.3429 18.7953 22.598C19.1342 22.853 19.5454 22.9938 19.9695 22.9998C20.3936 23.0058 20.8087 22.8769 21.1547 22.6315C21.5007 22.3862 21.7598 22.0372 21.8945 21.635C22.0291 21.2328 22.0325 20.7982 21.9039 20.394C21.7754 19.9897 21.5217 19.6369 21.1794 19.3863C20.8372 19.1357 20.4242 19.0004 20 19C19.7348 19 19.4804 18.8946 19.2929 18.7071C19.1054 18.5196 19 18.2652 19 18C19 17.7348 19.1054 17.4804 19.2929 17.2929C19.4804 17.1054 19.7348 17 20 17C21.0609 17 22.0783 17.4214 22.8284 18.1716C23.5786 18.9217 24 19.9391 24 21C24 22.0609 23.5786 23.0783 22.8284 23.8284C22.0783 24.5786 21.0609 25 20 25Z" fill="#FF794C"/>
</svg>
