<svg width="40" height="40" viewBox="0 0 40 40" fill="none" xmlns="http://www.w3.org/2000/svg">
<rect opacity="0.1" width="40" height="40" rx="4" fill="#1787FB"/>
<path d="M30 11C29.7348 11 29.4804 11.1054 29.2929 11.2929C29.1054 11.4804 29 11.7348 29 12C29 12.2652 28.8946 12.5196 28.7071 12.7071C28.5196 12.8946 28.2652 13 28 13C27.7348 13 27.4804 12.8946 27.2929 12.7071C27.1054 12.5196 27 12.2652 27 12C27 11.7348 26.8946 11.4804 26.7071 11.2929C26.5196 11.1054 26.2652 11 26 11C25.7348 11 25.4804 11.1054 25.2929 11.2929C25.1054 11.4804 25 11.7348 25 12C25 12.2652 24.8946 12.5196 24.7071 12.7071C24.5196 12.8946 24.2652 13 24 13C23.7348 13 23.4804 12.8946 23.2929 12.7071C23.1054 12.5196 23 12.2652 23 12C23 11.7348 22.8946 11.4804 22.7071 11.2929C22.5196 11.1054 22.2652 11 22 11C21.7348 11 21.4804 11.1054 21.2929 11.2929C21.1054 11.4804 21 11.7348 21 12C21 12.2652 20.8946 12.5196 20.7071 12.7071C20.5196 12.8946 20.2652 13 20 13C19.7348 13 19.4804 12.8946 19.2929 12.7071C19.1054 12.5196 19 12.2652 19 12C19 11.7348 18.8946 11.4804 18.7071 11.2929C18.5196 11.1054 18.2652 11 18 11C17.7348 11 17.4804 11.1054 17.2929 11.2929C17.1054 11.4804 17 11.7348 17 12C17 12.2652 16.8946 12.5196 16.7071 12.7071C16.5196 12.8946 16.2652 13 16 13C15.7348 13 15.4804 12.8946 15.2929 12.7071C15.1054 12.5196 15 12.2652 15 12C15 11.7348 14.8946 11.4804 14.7071 11.2929C14.5196 11.1054 14.2652 11 14 11C13.7348 11 13.4804 11.1054 13.2929 11.2929C13.1054 11.4804 13 11.7348 13 12C13 12.2652 12.8946 12.5196 12.7071 12.7071C12.5196 12.8946 12.2652 13 12 13C11.7348 13 11.4804 12.8946 11.2929 12.7071C11.1054 12.5196 11 12.2652 11 12C11 11.7348 10.8946 11.4804 10.7071 11.2929C10.5196 11.1054 10.2652 11 10 11C9.46957 11 8.96086 11.2107 8.58579 11.5858C8.21071 11.9609 8 12.4696 8 13V27C8 27.5304 8.21071 28.0391 8.58579 28.4142C8.96086 28.7893 9.46957 29 10 29C10.2652 29 10.5196 28.8946 10.7071 28.7071C10.8946 28.5196 11 28.2652 11 28C11 27.7348 11.1054 27.4804 11.2929 27.2929C11.4804 27.1054 11.7348 27 12 27C12.2652 27 12.5196 27.1054 12.7071 27.2929C12.8946 27.4804 13 27.7348 13 28C13 28.2652 13.1054 28.5196 13.2929 28.7071C13.4804 28.8946 13.7348 29 14 29C14.2652 29 14.5196 28.8946 14.7071 28.7071C14.8946 28.5196 15 28.2652 15 28C15 27.7348 15.1054 27.4804 15.2929 27.2929C15.4804 27.1054 15.7348 27 16 27C16.2652 27 16.5196 27.1054 16.7071 27.2929C16.8946 27.4804 17 27.7348 17 28C17 28.2652 17.1054 28.5196 17.2929 28.7071C17.4804 28.8946 17.7348 29 18 29C18.2652 29 18.5196 28.8946 18.7071 28.7071C18.8946 28.5196 19 28.2652 19 28C19 27.7348 19.1054 27.4804 19.2929 27.2929C19.4804 27.1054 19.7348 27 20 27C20.2652 27 20.5196 27.1054 20.7071 27.2929C20.8946 27.4804 21 27.7348 21 28C21 28.2652 21.1054 28.5196 21.2929 28.7071C21.4804 28.8946 21.7348 29 22 29C22.2652 29 22.5196 28.8946 22.7071 28.7071C22.8946 28.5196 23 28.2652 23 28C23 27.7348 23.1054 27.4804 23.2929 27.2929C23.4804 27.1054 23.7348 27 24 27C24.2652 27 24.5196 27.1054 24.7071 27.2929C24.8946 27.4804 25 27.7348 25 28C25 28.2652 25.1054 28.5196 25.2929 28.7071C25.4804 28.8946 25.7348 29 26 29C26.2652 29 26.5196 28.8946 26.7071 28.7071C26.8946 28.5196 27 28.2652 27 28C27 27.7348 27.1054 27.4804 27.2929 27.2929C27.4804 27.1054 27.7348 27 28 27C28.2652 27 28.5196 27.1054 28.7071 27.2929C28.8946 27.4804 29 27.7348 29 28C29 28.2652 29.1054 28.5196 29.2929 28.7071C29.4804 28.8946 29.7348 29 30 29C30.5304 29 31.0391 28.7893 31.4142 28.4142C31.7893 28.0391 32 27.5304 32 27V13C32 12.4696 31.7893 11.9609 31.4142 11.5858C31.0391 11.2107 30.5304 11 30 11V11ZM23.64 20.85L18.53 24C18.3821 24.0927 18.2124 24.1451 18.0379 24.1519C17.8635 24.1588 17.6903 24.1198 17.5355 24.0389C17.3808 23.958 17.2499 23.838 17.156 23.6908C17.062 23.5436 17.0083 23.3744 17 23.2V16.8C17.0083 16.6256 17.062 16.4564 17.156 16.3092C17.2499 16.162 17.3808 16.042 17.5355 15.9611C17.6903 15.8802 17.8635 15.8412 18.0379 15.8481C18.2124 15.8549 18.3821 15.9073 18.53 16L23.64 19.2C23.7741 19.2918 23.8837 19.415 23.9595 19.5587C24.0353 19.7025 24.0749 19.8625 24.0749 20.025C24.0749 20.1875 24.0353 20.3475 23.9595 20.4913C23.8837 20.635 23.7741 20.7582 23.64 20.85Z" fill="#1787FB"/>
</svg>
