<svg width="86" height="20" viewBox="0 0 86 20" fill="none" xmlns="http://www.w3.org/2000/svg">
<path d="M6.296 19.168C5.176 19.168 4.168 18.976 3.272 18.592C2.376 18.192 1.672 17.632 1.16 16.912C0.648 16.192 0.392 15.352 0.392 14.392H3.32C3.384 15.112 3.664 15.704 4.16 16.168C4.672 16.632 5.384 16.864 6.296 16.864C7.24 16.864 7.976 16.64 8.504 16.192C9.032 15.728 9.296 15.136 9.296 14.416C9.296 13.856 9.128 13.4 8.792 13.048C8.472 12.696 8.064 12.424 7.568 12.232C7.088 12.04 6.416 11.832 5.552 11.608C4.464 11.32 3.576 11.032 2.888 10.744C2.216 10.44 1.64 9.976 1.16 9.352C0.68 8.728 0.44 7.896 0.44 6.856C0.44 5.896 0.68 5.056 1.16 4.336C1.64 3.616 2.312 3.064 3.176 2.68C4.04 2.296 5.04 2.104 6.176 2.104C7.792 2.104 9.112 2.512 10.136 3.328C11.176 4.128 11.752 5.232 11.864 6.64H8.84C8.792 6.032 8.504 5.512 7.976 5.08C7.448 4.648 6.752 4.432 5.888 4.432C5.104 4.432 4.464 4.632 3.968 5.032C3.472 5.432 3.224 6.008 3.224 6.76C3.224 7.272 3.376 7.696 3.68 8.032C4 8.352 4.4 8.608 4.88 8.8C5.36 8.992 6.016 9.2 6.848 9.424C7.952 9.728 8.848 10.032 9.536 10.336C10.24 10.64 10.832 11.112 11.312 11.752C11.808 12.376 12.056 13.216 12.056 14.272C12.056 15.12 11.824 15.92 11.36 16.672C10.912 17.424 10.248 18.032 9.368 18.496C8.504 18.944 7.48 19.168 6.296 19.168ZM14.1724 12.328C14.1724 11 14.4444 9.824 14.9884 8.8C15.5484 7.776 16.3004 6.984 17.2444 6.424C18.2044 5.848 19.2604 5.56 20.4124 5.56C21.4524 5.56 22.3564 5.768 23.1244 6.184C23.9084 6.584 24.5324 7.088 24.9964 7.696V5.776H27.7564V19H24.9964V17.032C24.5324 17.656 23.9004 18.176 23.1004 18.592C22.3004 19.008 21.3884 19.216 20.3644 19.216C19.2284 19.216 18.1884 18.928 17.2444 18.352C16.3004 17.76 15.5484 16.944 14.9884 15.904C14.4444 14.848 14.1724 13.656 14.1724 12.328ZM24.9964 12.376C24.9964 11.464 24.8044 10.672 24.4204 10C24.0524 9.328 23.5644 8.816 22.9564 8.464C22.3484 8.112 21.6924 7.936 20.9884 7.936C20.2844 7.936 19.6284 8.112 19.0204 8.464C18.4124 8.8 17.9164 9.304 17.5324 9.976C17.1644 10.632 16.9804 11.416 16.9804 12.328C16.9804 13.24 17.1644 14.04 17.5324 14.728C17.9164 15.416 18.4124 15.944 19.0204 16.312C19.6444 16.664 20.3004 16.84 20.9884 16.84C21.6924 16.84 22.3484 16.664 22.9564 16.312C23.5644 15.96 24.0524 15.448 24.4204 14.776C24.8044 14.088 24.9964 13.288 24.9964 12.376ZM36.694 8.008H34.246V19H31.486V8.008H29.926V5.776H31.486V4.84C31.486 3.32 31.886 2.216 32.686 1.528C33.502 0.823999 34.774 0.472 36.502 0.472V2.752C35.67 2.752 35.086 2.912 34.75 3.232C34.414 3.536 34.246 4.072 34.246 4.84V5.776H36.694V8.008ZM51.0388 12.064C51.0388 12.56 51.0068 13.008 50.9428 13.408H40.8388C40.9188 14.464 41.3108 15.312 42.0148 15.952C42.7188 16.592 43.5828 16.912 44.6068 16.912C46.0788 16.912 47.1188 16.296 47.7268 15.064H50.6788C50.2788 16.28 49.5508 17.28 48.4948 18.064C47.4548 18.832 46.1588 19.216 44.6068 19.216C43.3428 19.216 42.2068 18.936 41.1988 18.376C40.2068 17.8 39.4228 17 38.8468 15.976C38.2868 14.936 38.0068 13.736 38.0068 12.376C38.0068 11.016 38.2788 9.824 38.8228 8.8C39.3828 7.76 40.1588 6.96 41.1508 6.4C42.1588 5.84 43.3108 5.56 44.6068 5.56C45.8548 5.56 46.9668 5.832 47.9428 6.376C48.9188 6.92 49.6788 7.688 50.2228 8.68C50.7668 9.656 51.0388 10.784 51.0388 12.064ZM48.1828 11.2C48.1668 10.192 47.8068 9.384 47.1028 8.776C46.3988 8.168 45.5268 7.864 44.4868 7.864C43.5428 7.864 42.7348 8.168 42.0628 8.776C41.3908 9.368 40.9908 10.176 40.8628 11.2H48.1828ZM83.9306 19.168C83.4346 19.168 83.0186 19 82.6826 18.664C82.3466 18.328 82.1786 17.912 82.1786 17.416C82.1786 16.92 82.3466 16.504 82.6826 16.168C83.0186 15.832 83.4346 15.664 83.9306 15.664C84.4106 15.664 84.8186 15.832 85.1546 16.168C85.4906 16.504 85.6586 16.92 85.6586 17.416C85.6586 17.912 85.4906 18.328 85.1546 18.664C84.8186 19 84.4106 19.168 83.9306 19.168Z" fill="white"/>
<path d="M52.6193 12.376C52.6193 11.016 52.8913 9.824 53.4353 8.8C53.9953 7.76 54.7633 6.96 55.7393 6.4C56.7153 5.84 57.8353 5.56 59.0993 5.56C60.6993 5.56 62.0193 5.944 63.0593 6.712C64.1153 7.464 64.8273 8.544 65.1953 9.952H62.2433C62.0033 9.296 61.6193 8.784 61.0913 8.416C60.5633 8.048 59.8993 7.864 59.0993 7.864C57.9793 7.864 57.0833 8.264 56.4113 9.064C55.7553 9.848 55.4273 10.952 55.4273 12.376C55.4273 13.8 55.7553 14.912 56.4113 15.712C57.0833 16.512 57.9793 16.912 59.0993 16.912C60.6833 16.912 61.7313 16.216 62.2433 14.824H65.1953C64.8113 16.168 64.0913 17.24 63.0353 18.04C61.9793 18.824 60.6673 19.216 59.0993 19.216C57.8353 19.216 56.7153 18.936 55.7393 18.376C54.7633 17.8 53.9953 17 53.4353 15.976C52.8913 14.936 52.6193 13.736 52.6193 12.376ZM73.4579 19.216C72.2099 19.216 71.0819 18.936 70.0739 18.376C69.0659 17.8 68.2739 17 67.6979 15.976C67.1219 14.936 66.8339 13.736 66.8339 12.376C66.8339 11.032 67.1299 9.84 67.7219 8.8C68.3139 7.76 69.1219 6.96 70.1459 6.4C71.1699 5.84 72.3139 5.56 73.5779 5.56C74.8419 5.56 75.9859 5.84 77.0099 6.4C78.0339 6.96 78.8419 7.76 79.4339 8.8C80.0259 9.84 80.3219 11.032 80.3219 12.376C80.3219 13.72 80.0179 14.912 79.4099 15.952C78.8019 16.992 77.9699 17.8 76.9139 18.376C75.8739 18.936 74.7219 19.216 73.4579 19.216ZM73.4579 16.84C74.1619 16.84 74.8179 16.672 75.4259 16.336C76.0499 16 76.5539 15.496 76.9379 14.824C77.3219 14.152 77.5139 13.336 77.5139 12.376C77.5139 11.416 77.3299 10.608 76.9619 9.952C76.5939 9.28 76.1059 8.776 75.4979 8.44C74.8899 8.104 74.2339 7.936 73.5299 7.936C72.8259 7.936 72.1699 8.104 71.5619 8.44C70.9699 8.776 70.4979 9.28 70.1459 9.952C69.7939 10.608 69.6179 11.416 69.6179 12.376C69.6179 13.8 69.9779 14.904 70.6979 15.688C71.4339 16.456 72.3539 16.84 73.4579 16.84Z" fill="#FFCD28"/>
</svg>
