<svg width="82" height="20" viewBox="0 0 82 20" fill="none" xmlns="http://www.w3.org/2000/svg">
<path d="M6.44 19.168C5.272 19.168 4.216 18.968 3.272 18.568C2.344 18.168 1.608 17.592 1.064 16.84C0.52 16.088 0.24 15.2 0.224 14.176H3.824C3.872 14.864 4.112 15.408 4.544 15.808C4.992 16.208 5.6 16.408 6.368 16.408C7.152 16.408 7.768 16.224 8.216 15.856C8.664 15.472 8.888 14.976 8.888 14.368C8.888 13.872 8.736 13.464 8.432 13.144C8.128 12.824 7.744 12.576 7.28 12.4C6.832 12.208 6.208 12 5.408 11.776C4.32 11.456 3.432 11.144 2.744 10.84C2.072 10.52 1.488 10.048 0.992 9.424C0.512 8.784 0.272 7.936 0.272 6.88C0.272 5.888 0.52 5.024 1.016 4.288C1.512 3.552 2.208 2.992 3.104 2.608C4 2.208 5.024 2.008 6.176 2.008C7.904 2.008 9.304 2.432 10.376 3.28C11.464 4.112 12.064 5.28 12.176 6.784H8.48C8.448 6.208 8.2 5.736 7.736 5.368C7.288 4.984 6.688 4.792 5.936 4.792C5.28 4.792 4.752 4.96 4.352 5.296C3.968 5.632 3.776 6.12 3.776 6.76C3.776 7.208 3.92 7.584 4.208 7.888C4.512 8.176 4.88 8.416 5.312 8.608C5.76 8.784 6.384 8.992 7.184 9.232C8.272 9.552 9.16 9.872 9.848 10.192C10.536 10.512 11.128 10.992 11.624 11.632C12.12 12.272 12.368 13.112 12.368 14.152C12.368 15.048 12.136 15.88 11.672 16.648C11.208 17.416 10.528 18.032 9.632 18.496C8.736 18.944 7.672 19.168 6.44 19.168ZM13.417 12.304C13.417 10.96 13.681 9.768 14.209 8.728C14.753 7.688 15.481 6.888 16.393 6.328C17.321 5.768 18.353 5.488 19.489 5.488C20.481 5.488 21.345 5.688 22.081 6.088C22.833 6.488 23.433 6.992 23.881 7.6V5.704H27.265V19H23.881V17.056C23.449 17.68 22.849 18.2 22.081 18.616C21.329 19.016 20.457 19.216 19.465 19.216C18.345 19.216 17.321 18.928 16.393 18.352C15.481 17.776 14.753 16.968 14.209 15.928C13.681 14.872 13.417 13.664 13.417 12.304ZM23.881 12.352C23.881 11.536 23.721 10.84 23.401 10.264C23.081 9.672 22.649 9.224 22.105 8.92C21.561 8.6 20.977 8.44 20.353 8.44C19.729 8.44 19.153 8.592 18.625 8.896C18.097 9.2 17.665 9.648 17.329 10.24C17.009 10.816 16.849 11.504 16.849 12.304C16.849 13.104 17.009 13.808 17.329 14.416C17.665 15.008 18.097 15.464 18.625 15.784C19.169 16.104 19.745 16.264 20.353 16.264C20.977 16.264 21.561 16.112 22.105 15.808C22.649 15.488 23.081 15.04 23.401 14.464C23.721 13.872 23.881 13.168 23.881 12.352ZM35.6426 8.464H33.3146V19H29.9066V8.464H28.3946V5.704H29.9066V5.032C29.9066 3.4 30.3706 2.2 31.2986 1.432C32.2266 0.663999 33.6266 0.303999 35.4986 0.352V3.184C34.6826 3.168 34.1146 3.304 33.7946 3.592C33.4746 3.88 33.3146 4.4 33.3146 5.152V5.704H35.6426V8.464ZM49.1801 12.064C49.1801 12.544 49.1481 12.976 49.0841 13.36H39.3641C39.4441 14.32 39.7801 15.072 40.3721 15.616C40.9641 16.16 41.6921 16.432 42.5561 16.432C43.8041 16.432 44.6921 15.896 45.2201 14.824H48.8441C48.4601 16.104 47.7241 17.16 46.6361 17.992C45.5481 18.808 44.2121 19.216 42.6281 19.216C41.3481 19.216 40.1961 18.936 39.1721 18.376C38.1641 17.8 37.3721 16.992 36.7961 15.952C36.2361 14.912 35.9561 13.712 35.9561 12.352C35.9561 10.976 36.2361 9.768 36.7961 8.728C37.3561 7.688 38.1401 6.888 39.1481 6.328C40.1561 5.768 41.3161 5.488 42.6281 5.488C43.8921 5.488 45.0201 5.76 46.0121 6.304C47.0201 6.848 47.7961 7.624 48.3401 8.632C48.9001 9.624 49.1801 10.768 49.1801 12.064ZM45.7001 11.104C45.6841 10.24 45.3721 9.552 44.7641 9.04C44.1561 8.512 43.4121 8.248 42.5321 8.248C41.7001 8.248 40.9961 8.504 40.4201 9.016C39.8601 9.512 39.5161 10.208 39.3881 11.104H45.7001Z" fill="#1D263A"/>
<path d="M49.7686 12.352C49.7686 10.976 50.0486 9.776 50.6086 8.752C51.1686 7.712 51.9446 6.912 52.9366 6.352C53.9286 5.776 55.0646 5.488 56.3446 5.488C57.9926 5.488 59.3526 5.904 60.4246 6.736C61.5126 7.552 62.2406 8.704 62.6086 10.192H58.9846C58.7926 9.616 58.4646 9.168 58.0006 8.848C57.5526 8.512 56.9926 8.344 56.3206 8.344C55.3606 8.344 54.6006 8.696 54.0406 9.4C53.4806 10.088 53.2006 11.072 53.2006 12.352C53.2006 13.616 53.4806 14.6 54.0406 15.304C54.6006 15.992 55.3606 16.336 56.3206 16.336C57.6806 16.336 58.5686 15.728 58.9846 14.512H62.6086C62.2406 15.952 61.5126 17.096 60.4246 17.944C59.3366 18.792 57.9766 19.216 56.3446 19.216C55.0646 19.216 53.9286 18.936 52.9366 18.376C51.9446 17.8 51.1686 17 50.6086 15.976C50.0486 14.936 49.7686 13.728 49.7686 12.352ZM69.9741 19.216C68.6941 19.216 67.5421 18.936 66.5181 18.376C65.4941 17.8 64.6861 16.992 64.0941 15.952C63.5181 14.912 63.2301 13.712 63.2301 12.352C63.2301 10.992 63.5261 9.792 64.1181 8.752C64.7261 7.712 65.5501 6.912 66.5901 6.352C67.6301 5.776 68.7901 5.488 70.0701 5.488C71.3501 5.488 72.5101 5.776 73.5501 6.352C74.5901 6.912 75.4061 7.712 75.9981 8.752C76.6061 9.792 76.9101 10.992 76.9101 12.352C76.9101 13.712 76.5981 14.912 75.9741 15.952C75.3661 16.992 74.5341 17.8 73.4781 18.376C72.4381 18.936 71.2701 19.216 69.9741 19.216ZM69.9741 16.288C70.5821 16.288 71.1501 16.144 71.6781 15.856C72.2221 15.552 72.6541 15.104 72.9741 14.512C73.2941 13.92 73.4541 13.2 73.4541 12.352C73.4541 11.088 73.1181 10.12 72.4461 9.448C71.7901 8.76 70.9821 8.416 70.0221 8.416C69.0621 8.416 68.2541 8.76 67.5981 9.448C66.9581 10.12 66.6381 11.088 66.6381 12.352C66.6381 13.616 66.9501 14.592 67.5741 15.28C68.2141 15.952 69.0141 16.288 69.9741 16.288ZM79.8628 19.168C79.2548 19.168 78.7508 18.984 78.3508 18.616C77.9668 18.232 77.7748 17.76 77.7748 17.2C77.7748 16.64 77.9668 16.176 78.3508 15.808C78.7508 15.424 79.2548 15.232 79.8628 15.232C80.4548 15.232 80.9428 15.424 81.3268 15.808C81.7108 16.176 81.9028 16.64 81.9028 17.2C81.9028 17.76 81.7108 18.232 81.3268 18.616C80.9428 18.984 80.4548 19.168 79.8628 19.168Z" fill="#FFCD28"/>
</svg>
