<svg width="65" height="65" viewBox="0 0 65 65" fill="none" xmlns="http://www.w3.org/2000/svg">
<rect width="65" height="65" rx="8" fill="white"/>
<g clip-path="url(#clip0_32_204)">
<path d="M39.1515 42.2727C39.267 42.2223 39.3933 42.2015 39.5188 42.2122C39.6444 42.2229 39.7653 42.2647 39.8706 42.3339C39.9759 42.4031 40.0623 42.4975 40.1219 42.6085C40.1816 42.7195 40.2126 42.8437 40.2121 42.9697V50.2121C40.2115 50.3362 40.1804 50.4582 40.1216 50.5675C40.0628 50.6767 39.978 50.7699 39.8748 50.8387C39.7715 50.9075 39.653 50.9499 39.5295 50.9622C39.406 50.9745 39.2814 50.9562 39.1667 50.9091L33.7576 48.7879C33.0331 48.4971 32.2244 48.4971 31.5 48.7879L26.1061 50.9545C25.9901 51.0022 25.8641 51.0203 25.7394 51.0073C25.6147 50.9943 25.4952 50.9505 25.3916 50.88C25.288 50.8094 25.2035 50.7142 25.1457 50.6029C25.088 50.4916 25.0587 50.3678 25.0606 50.2424V43C25.055 42.8714 25.0821 42.7436 25.1396 42.6284C25.1971 42.5133 25.2829 42.4147 25.389 42.3419C25.4951 42.2692 25.6181 42.2246 25.7462 42.2125C25.8743 42.2004 26.0033 42.2211 26.1212 42.2727C28.1543 43.2494 30.3809 43.7565 32.6364 43.7565C34.8919 43.7565 37.1185 43.2494 39.1515 42.2727ZM46.2727 28.6364C46.2727 31.3334 45.473 33.9698 43.9746 36.2123C42.4762 38.4548 40.3465 40.2026 37.8548 41.2347C35.3631 42.2668 32.6212 42.5369 29.976 42.0107C27.3309 41.4845 24.9011 40.1858 22.994 38.2787C21.0869 36.3716 19.7882 33.9419 19.262 31.2967C18.7359 28.6515 19.0059 25.9097 20.038 23.418C21.0701 20.9262 22.8179 18.7965 25.0604 17.2981C27.3029 15.7998 29.9394 15 32.6364 15C36.253 15 39.7214 16.4367 42.2787 18.994C44.836 21.5513 46.2727 25.0198 46.2727 28.6364ZM38.2576 24.5303C37.9737 24.2481 37.5897 24.0897 37.1894 24.0897C36.7891 24.0897 36.4051 24.2481 36.1212 24.5303L31.1212 29.5303L29.1667 27.5606C28.8814 27.2753 28.4944 27.115 28.0909 27.115C27.6874 27.115 27.3005 27.2753 27.0152 27.5606C26.7298 27.8459 26.5696 28.2329 26.5696 28.6364C26.5696 29.0399 26.7298 29.4268 27.0152 29.7121L30.0455 32.7424C30.3293 33.0246 30.7134 33.183 31.1136 33.183C31.5139 33.183 31.8979 33.0246 32.1818 32.7424L38.2424 26.6818C38.3854 26.542 38.4993 26.3752 38.5776 26.1911C38.6558 26.007 38.6968 25.8092 38.6982 25.6092C38.6996 25.4092 38.6614 25.2109 38.5858 25.0257C38.5101 24.8405 38.3986 24.6722 38.2576 24.5303Z" fill="#0A043C"/>
</g>
<defs>
<clipPath id="clip0_32_204">
<rect width="27.2727" height="36" fill="white" transform="translate(19 15)"/>
</clipPath>
</defs>
</svg>
