<svg width="17" height="16" viewBox="0 0 17 16" fill="none" xmlns="http://www.w3.org/2000/svg">
<path d="M16.3453 15.8131V15.8124H16.3493V10.0171C16.3493 7.18199 15.7361 4.99805 12.4063 4.99805C10.8056 4.99805 9.73137 5.87242 9.29282 6.70135H9.24652V5.26273H6.08936V15.8124H9.37682V10.5886C9.37682 9.21319 9.63876 7.8832 11.35 7.8832C13.036 7.8832 13.0612 9.45285 13.0612 10.6768V15.8131H16.3453Z" fill="white"/>
<path d="M0.733887 5.28516H4.02643V15.8349H0.733887V5.28516Z" fill="white"/>
<path d="M2.39037 0.0341797C1.33763 0.0341797 0.483398 0.884187 0.483398 1.93172C0.483398 2.97925 1.33763 3.84703 2.39037 3.84703C3.44311 3.84703 4.29734 2.97925 4.29734 1.93172C4.29668 0.884187 3.44245 0.0341797 2.39037 0.0341797V0.0341797Z" fill="white"/>
</svg>
