<svg width="9" height="16" viewBox="0 0 9 16" fill="none" xmlns="http://www.w3.org/2000/svg">
<path d="M8.29492 0.00330187L6.2275 0C3.90481 0 2.40379 1.53289 2.40379 3.90545V5.70612H0.325083C0.145458 5.70612 0 5.85107 0 6.02987V8.63884C0 8.81763 0.145624 8.96242 0.325083 8.96242H2.40379V15.5457C2.40379 15.7245 2.54925 15.8693 2.72887 15.8693H5.44099C5.62062 15.8693 5.76608 15.7243 5.76608 15.5457V8.96242H8.19657C8.37619 8.96242 8.52165 8.81763 8.52165 8.63884L8.52265 6.02987C8.52265 5.94402 8.48831 5.8618 8.42744 5.80105C8.36657 5.74029 8.28364 5.70612 8.1974 5.70612H5.76608V4.17967C5.76608 3.44599 5.94172 3.07354 6.90188 3.07354L8.29459 3.07305C8.47405 3.07305 8.61951 2.92809 8.61951 2.74946V0.326885C8.61951 0.148419 8.47422 0.00363205 8.29492 0.00330187Z" fill="white"/>
</svg>
