<svg width="65" height="65" viewBox="0 0 65 65" fill="none" xmlns="http://www.w3.org/2000/svg">
<rect width="65" height="65" rx="8" fill="white"/>
<g clip-path="url(#clip0_32_190)">
<path d="M50.0215 35.867V40.2446C50.028 40.955 49.7751 41.6433 49.3104 42.1806C48.8456 42.7179 48.2009 43.0672 47.497 43.1631C47.3899 44.7439 46.6873 46.2253 45.531 47.3086C44.3746 48.3918 42.8506 48.9962 41.2661 49H33.97C33.4668 49 32.9843 48.8001 32.6286 48.4444C32.2728 48.0886 32.073 47.6061 32.073 47.103V44.6223C32.073 44.1192 32.2728 43.6367 32.6286 43.2809C32.9843 42.9252 33.4668 42.7253 33.97 42.7253C34.4731 42.7253 34.9556 42.9252 35.3113 43.2809C35.6671 43.6367 35.867 44.1192 35.867 44.6223V45.206H41.2661C41.8536 45.2031 42.421 44.9918 42.8673 44.6096C43.3135 44.2275 43.6097 43.6994 43.703 43.1193C43.0151 43.0043 42.3911 42.6467 41.9441 42.1114C41.4971 41.576 41.2565 40.8983 41.2661 40.2009V35.8232C41.2661 34.6621 41.7273 33.5487 42.5483 32.7277C43.3693 31.9067 44.4827 31.4455 45.6438 31.4455C46.2224 31.4455 46.7952 31.5601 47.3292 31.7829C47.8632 32.0056 48.3478 32.332 48.7548 32.7431C49.1619 33.1543 49.4835 33.6421 49.7009 34.1782C49.9183 34.7144 50.0272 35.2884 50.0215 35.867ZM32.9047 18.794C35.3433 18.8273 37.7101 19.6236 39.673 21.0708C41.6359 22.5181 43.0962 24.5438 43.8489 26.8635C44.0076 27.3415 44.3496 27.7368 44.7998 27.9626C45.25 28.1884 45.7714 28.2261 46.2494 28.0674C46.7273 27.9087 47.1227 27.5667 47.3484 27.1165C47.5742 26.6663 47.6119 26.1449 47.4532 25.667C46.4586 22.5846 44.5171 19.8944 41.9051 17.9792C39.2931 16.0641 36.1436 15.0216 32.9047 15C28.7905 15.0539 24.8649 16.7341 21.9857 19.6734C19.1065 22.6128 17.5079 26.5723 17.5391 30.6867V31.533C16.84 31.6247 16.1977 31.9663 15.731 32.4947C15.2643 33.0232 15.0046 33.7027 15 34.4077V38.7854C15 39.9464 15.4612 41.0599 16.2822 41.8809C17.1032 42.7019 18.2166 43.1631 19.3777 43.1631C20.5387 43.1631 21.6522 42.7019 22.4732 41.8809C23.2941 41.0599 23.7554 39.9464 23.7554 38.7854V34.4077C23.7644 33.7082 23.5218 33.0287 23.0718 32.493C22.6219 31.9574 21.9944 31.6011 21.3039 31.4893V30.7159C21.2687 27.5987 22.4695 24.5946 24.6435 22.3604C26.8175 20.1262 29.7878 18.8439 32.9047 18.794Z" fill="#0A043C"/>
</g>
<defs>
<clipPath id="clip0_32_190">
<rect width="35.0215" height="34" fill="white" transform="translate(15 15)"/>
</clipPath>
</defs>
</svg>
