<svg width="17" height="14" viewBox="0 0 17 14" fill="none" xmlns="http://www.w3.org/2000/svg">
<path d="M16.4836 2.0384C15.8936 2.29599 15.265 2.46672 14.6097 2.54962C15.2839 2.14894 15.7985 1.51928 16.0404 0.76034C15.4118 1.1334 14.7177 1.3969 13.9781 1.54395C13.3812 0.911338 12.5305 0.519531 11.6024 0.519531C9.80188 0.519531 8.35231 1.97425 8.35231 3.75761C8.35231 4.01421 8.37413 4.26094 8.42767 4.49583C5.72386 4.36457 3.33137 3.07467 1.72416 1.10971C1.44356 1.59429 1.27897 2.14894 1.27897 2.74602C1.27897 3.86716 1.859 4.86099 2.72359 5.43636C2.20107 5.42649 1.68846 5.2755 1.25419 5.03765C1.25419 5.04752 1.25419 5.06035 1.25419 5.07318C1.25419 6.64633 2.38152 7.95301 3.85984 8.25402C3.59511 8.32606 3.30659 8.36061 3.00715 8.36061C2.79894 8.36061 2.58874 8.34876 2.39143 8.30534C2.81282 9.58735 4.00857 10.5299 5.43037 10.5604C4.32386 11.422 2.91891 11.9411 1.39795 11.9411C1.13124 11.9411 0.875435 11.9293 0.619629 11.8967C2.06027 12.8215 3.76763 13.3495 5.60884 13.3495C11.5935 13.3495 14.8655 8.41489 14.8655 4.13758C14.8655 3.99447 14.8605 3.85631 14.8536 3.71912C15.499 3.26317 16.0414 2.69371 16.4836 2.0384Z" fill="white"/>
</svg>
