<svg width="15" height="15" viewBox="0 0 15 15" fill="none" xmlns="http://www.w3.org/2000/svg">
<g clip-path="url(#clip0_32_101)">
<path d="M11.5703 12.1632C11.6642 12.2732 11.7335 12.402 11.7738 12.541C11.8141 12.6799 11.8243 12.8259 11.8039 12.9691C11.7834 13.1123 11.7327 13.2495 11.6551 13.3717C11.5776 13.4938 11.4749 13.598 11.354 13.6774L9.88919 14.7281C8.44914 15.7726 5.22294 13.7639 2.67658 10.2534C0.130229 6.74289 -0.753578 3.04697 0.686471 2.00247L2.1327 0.951792C2.24687 0.86316 2.37858 0.799809 2.51909 0.765941C2.6596 0.732073 2.80571 0.728461 2.94773 0.755344C3.08974 0.782227 3.22442 0.838992 3.34283 0.921875C3.46124 1.00476 3.56068 1.11186 3.63456 1.23609L4.60489 3.09023C4.71911 3.31373 4.7724 3.56338 4.75938 3.81403C4.74636 4.06468 4.66749 4.30747 4.53072 4.51792L3.9683 5.40173C3.82755 5.62804 3.75295 5.88924 3.75295 6.15575C3.75295 6.42226 3.82755 6.68345 3.9683 6.90977L4.27732 7.42893C4.74734 8.2139 5.28502 8.95632 5.88425 9.64771L6.2798 10.1051C6.45495 10.3073 6.6834 10.4562 6.93911 10.5349C7.19482 10.6136 7.46748 10.6188 7.72603 10.5501L8.72726 10.2843C8.96986 10.2205 9.22499 10.2218 9.46694 10.288C9.7089 10.3542 9.92914 10.4829 10.1055 10.6613L11.5703 12.1632ZM10.2847 6.72435C10.3838 6.7609 10.489 6.77759 10.5945 6.77345C10.6999 6.76932 10.8036 6.74444 10.8994 6.70025C10.9953 6.65605 11.0815 6.59341 11.1531 6.51589C11.2247 6.43836 11.2804 6.34749 11.3169 6.24846C11.4523 5.88337 11.4983 5.49112 11.4508 5.10462C11.4033 4.71811 11.2639 4.34863 11.0441 4.02716C10.8243 3.70569 10.5307 3.44161 10.1878 3.25708C9.84488 3.07255 9.46272 2.97295 9.07337 2.96663C8.86028 2.96663 8.65591 3.05128 8.50524 3.20195C8.35456 3.35263 8.26991 3.557 8.26991 3.77009C8.26991 3.98318 8.35456 4.18754 8.50524 4.33822C8.65591 4.4889 8.86028 4.57355 9.07337 4.57355C9.20638 4.57502 9.33708 4.60851 9.45441 4.67119C9.57174 4.73386 9.67225 4.82387 9.74742 4.93361C9.8226 5.04335 9.87024 5.16958 9.88631 5.30163C9.90238 5.43367 9.88641 5.56765 9.83975 5.69221C9.76425 5.88828 9.76855 6.10611 9.85172 6.29904C9.93491 6.49198 10.0903 6.64465 10.2847 6.72435ZM13.3194 2.3424C12.8024 1.62537 12.1242 1.03983 11.3394 0.632961C10.5547 0.226092 9.68533 0.00928047 8.80143 0V0C8.58834 0 8.38397 0.0846501 8.23329 0.235328C8.08262 0.386006 7.99797 0.59037 7.99797 0.803461C7.99797 1.01655 8.08262 1.22092 8.23329 1.37159C8.38397 1.52227 8.58834 1.60692 8.80143 1.60692C9.45399 1.6174 10.0945 1.78431 10.6692 2.09362C11.2439 2.40294 11.736 2.84564 12.1041 3.38454C12.4723 3.92344 12.7057 4.54281 12.7849 5.19064C12.8641 5.83847 12.7867 6.49584 12.5592 7.10754C12.5226 7.20656 12.506 7.3118 12.5101 7.41726C12.5143 7.52272 12.5391 7.62633 12.5833 7.72217C12.6275 7.81801 12.6902 7.90421 12.7677 7.97585C12.8452 8.04749 12.936 8.10316 13.035 8.13968C13.1341 8.1762 13.2393 8.19287 13.3448 8.18871C13.4502 8.18457 13.5538 8.15968 13.6497 8.11549C13.7455 8.0713 13.8317 8.00867 13.9034 7.93116C13.975 7.85366 14.0307 7.7628 14.0672 7.66378C14.3909 6.78389 14.492 5.8376 14.3616 4.90917C14.2311 3.98074 13.8731 3.09898 13.3194 2.3424Z" fill="white"/>
</g>
<defs>
<clipPath id="clip0_32_101">
<rect width="14.4005" height="15" fill="white"/>
</clipPath>
</defs>
</svg>
