<svg width="13" height="19" viewBox="0 0 13 19" fill="none" xmlns="http://www.w3.org/2000/svg">
<g clip-path="url(#clip0_32_107)">
<path d="M6.49999 0C1.69075 0 0 3.63699 0 5.93641C0 8.38611 0.443352 9.2653 5.87629 17.689C5.94503 17.7913 6.03787 17.8751 6.14663 17.933C6.2554 17.991 6.37675 18.0213 6.49999 18.0213C6.62323 18.0213 6.74458 17.991 6.85334 17.933C6.96211 17.8751 7.05495 17.7913 7.12369 17.689C12.5566 9.2653 13 8.39363 13 5.93641C13.0075 3.63699 11.3092 0 6.49999 0ZM6.49999 8.19074C6.05412 8.19074 5.61827 8.05852 5.24755 7.81081C4.87683 7.56311 4.58788 7.21103 4.41726 6.7991C4.24663 6.38718 4.20199 5.93391 4.28897 5.49661C4.37596 5.05931 4.59066 4.65763 4.90594 4.34235C5.22121 4.02708 5.62289 3.81237 6.06019 3.72539C6.49749 3.63841 6.95076 3.68305 7.36268 3.85368C7.77461 4.0243 8.12669 4.31324 8.3744 4.68397C8.6221 5.05469 8.75432 5.49054 8.75432 5.93641C8.75432 6.53429 8.51681 7.10769 8.09404 7.53046C7.67127 7.95323 7.09787 8.19074 6.49999 8.19074Z" fill="white"/>
</g>
<defs>
<clipPath id="clip0_32_107">
<rect width="13" height="18.0243" fill="white"/>
</clipPath>
</defs>
</svg>
