<svg width="65" height="65" viewBox="0 0 65 65" fill="none" xmlns="http://www.w3.org/2000/svg">
<rect width="65" height="65" rx="8" fill="white"/>
<g clip-path="url(#clip0_32_174)">
<path d="M31.7767 49.6736L29.8883 48.1508C26.506 45.5202 23.7676 42.1535 21.8809 38.3063C19.9943 34.4591 19.009 30.2326 19 25.9477V21.9274C18.9996 21.3373 19.1707 20.7597 19.4924 20.265C19.8141 19.7703 20.2726 19.3796 20.8122 19.1406L32.0812 14.1305C32.2755 14.0444 32.4855 14 32.698 14C32.9104 14 33.1205 14.0444 33.3147 14.1305L44.599 19.1406C45.1386 19.3796 45.5971 19.7703 45.9188 20.265C46.2405 20.7597 46.4116 21.3373 46.4112 21.9274V25.9477C46.4114 30.2429 45.4306 34.4814 43.5436 38.3398C41.6566 42.1983 38.9133 45.5748 35.5228 48.2117L33.6345 49.7345C33.3616 49.9309 33.0313 50.0315 32.6952 50.0204C32.3591 50.0094 32.0362 49.8875 31.7767 49.6736Z" fill="#0A043C"/>
<path fill-rule="evenodd" clip-rule="evenodd" d="M38.6805 28.3195C39.1065 28.7455 39.1065 29.4363 38.6805 29.8623L32.135 36.4078C31.9304 36.6123 31.653 36.7273 31.3636 36.7273C31.0743 36.7273 30.7968 36.6123 30.5922 36.4078L27.3195 33.135C26.8935 32.709 26.8935 32.0183 27.3195 31.5922C27.7455 31.1662 28.4363 31.1662 28.8623 31.5922L31.3636 34.0936L37.1377 28.3195C37.5637 27.8935 38.2545 27.8935 38.6805 28.3195Z" fill="white"/>
</g>
<defs>
<clipPath id="clip0_32_174">
<rect width="27.4112" height="36" fill="white" transform="translate(19 14)"/>
</clipPath>
</defs>
</svg>
