<svg width="20" height="15" viewBox="0 0 20 15" fill="none" xmlns="http://www.w3.org/2000/svg">
<g clip-path="url(#clip0_32_95)">
<path d="M16.75 -1H3.25C2.65326 -1 2.08097 -0.762947 1.65901 -0.34099C1.23705 0.0809666 1 0.653263 1 1.25L1 10.25C1 10.8467 1.23705 11.419 1.65901 11.841C2.08097 12.2629 2.65326 12.5 3.25 12.5H16.75C17.3467 12.5 17.919 12.2629 18.341 11.841C18.7629 11.419 19 10.8467 19 10.25V1.25C19 0.653263 18.7629 0.0809666 18.341 -0.34099C17.919 -0.762947 17.3467 -1 16.75 -1V-1ZM17.23 1.91L11.44 6.725C11.0357 7.06175 10.5262 7.24616 10 7.24616C9.47383 7.24616 8.9643 7.06175 8.56 6.725L2.77 1.91C2.63373 1.77821 2.55242 1.59971 2.54242 1.4104C2.53243 1.22109 2.5945 1.03502 2.71614 0.889623C2.83778 0.744223 3.00997 0.650282 3.19807 0.626697C3.38617 0.603112 3.57623 0.651633 3.73 0.7625L9.52 5.5775C9.65477 5.68975 9.82461 5.75122 10 5.75122C10.1754 5.75122 10.3452 5.68975 10.48 5.5775L16.27 0.7625C16.4232 0.635196 16.6206 0.57395 16.8189 0.592235C17.0173 0.610519 17.2002 0.706837 17.3275 0.86C17.4548 1.01316 17.5161 1.21062 17.4978 1.40894C17.4795 1.60726 17.3832 1.7902 17.23 1.9175V1.91Z" fill="white"/>
</g>
<defs>
<clipPath id="clip0_32_95">
<rect width="20" height="15" fill="white"/>
</clipPath>
</defs>
</svg>
