<svg width="16" height="10" viewBox="0 0 16 10" fill="none" xmlns="http://www.w3.org/2000/svg">
<path d="M10.3526 9.27974C10.2142 9.13912 10.1364 8.94849 10.1364 8.74974C10.1364 8.55099 10.2142 8.36037 10.3526 8.21974L13.0333 5.49974H1.01944C0.823397 5.49974 0.635389 5.42072 0.496769 5.28007C0.358149 5.13942 0.280273 4.94865 0.280273 4.74974C0.280273 4.55083 0.358149 4.36006 0.496769 4.21941C0.635389 4.07876 0.823397 3.99974 1.01944 3.99974H13.0313L10.3526 1.28074C10.2839 1.21107 10.2295 1.12837 10.1923 1.03734C10.1551 0.946321 10.136 0.848763 10.136 0.75024C10.136 0.551264 10.2139 0.360438 10.3526 0.21974C10.4913 0.0790429 10.6793 0 10.8754 0C11.0715 0 11.2596 0.0790429 11.3983 0.21974L15.3405 4.21974C15.4091 4.2893 15.4636 4.37192 15.5007 4.46286C15.5379 4.55381 15.557 4.65129 15.557 4.74974C15.557 4.84819 15.5379 4.94567 15.5007 5.03662C15.4636 5.12756 15.4091 5.21018 15.3405 5.27974L11.3983 9.27974C11.3296 9.34943 11.2481 9.40472 11.1584 9.44244C11.0687 9.48016 10.9725 9.49958 10.8754 9.49958C10.7783 9.49958 10.6822 9.48016 10.5924 9.44244C10.5027 9.40472 10.4212 9.34943 10.3526 9.27974Z" fill="#FF794C"/>
</svg>
